<svg xmlns="http://www.w3.org/2000/svg" version="1.0" viewBox="0 0 3928 943"><path fill="#B60000" fill-opacity=".5" d="M38.5 239c0 33.3.1 46.9.2 30.3.2-16.7.2-43.9 0-60.5-.1-16.7-.2-3.1-.2 30.2zm429.7 59.7c3.7.2 10 .2 14 0 4-.1 1-.3-6.7-.3s-11 .1-7.3.3zm139.6 0c1.2.2 3.2.2 4.5 0 1.2-.2.2-.4-2.3-.4s-3.5.2-2.2.4zm10 0c1.8.2 4.5.2 6 0s0-.4-3.3-.4-4.5.2-2.7.4zm12.5 0c1.5.2 3.9.2 5.5 0 1.5-.2.2-.4-2.8-.4s-4.3.2-2.7.4zm12.5 0c1.8.2 4.5.2 6 0s0-.4-3.3-.4-4.5.2-2.7.4zm13 0c1.8.2 4.5.2 6 0s0-.4-3.3-.4-4.5.2-2.7.4zm13 0c1.8.2 4.5.2 6 0s0-.4-3.3-.4-4.5.2-2.7.4zm13 0c1.8.2 4.5.2 6 0s0-.4-3.3-.4-4.5.2-2.7.4zm12.5 0c1.5.2 3.9.2 5.5 0 1.5-.2.2-.4-2.8-.4s-4.3.2-2.7.4zM38.5 476c0 33.3.1 46.9.2 30.3.2-16.7.2-43.9 0-60.5-.1-16.7-.2-3.1-.2 30.2zm478.8-59.3c.9.2 2.3.2 3 0 .6-.3-.1-.5-1.8-.5-1.6 0-2.2.2-1.2.5zm33 119c1.5.2 3.7.2 5 0 1.2-.2 0-.4-2.8-.4-2.7 0-3.8.2-2.2.4zm146.5 0c.7.3 1.6.2 1.9-.1.4-.3-.2-.6-1.3-.5-1.1 0-1.4.3-.6.6zm5 0c1.2.2 3.2.2 4.5 0 1.2-.2.2-.4-2.3-.4s-3.5.2-2.2.4zm8 0c.6.2 1.8.2 2.5 0 .6-.3.1-.5-1.3-.5-1.4 0-1.9.2-1.2.5zM38.5 715c0 33.3.1 46.9.2 30.3.2-16.7.2-43.9 0-60.5-.1-16.7-.2-3.1-.2 30.2zm387.8-59.3c1.5.2 3.7.2 5 0 1.2-.2 0-.4-2.8-.4-2.7 0-3.8.2-2.2.4z"/><path fill="#B60000" d="M39 239.2v60.1l224.8-.6c189.3-.6 226.4-.9 235.2-2.1 28.8-4.1 63.5-4.4 88-1 15.6 2.2 98.4 3.1 292.3 3.3l150.7.1V179H39v60.2zM39 476v60h208.3c114.5 0 230.9-.3 258.6-.7l50.4-.6-11.9-6c-14.4-7.3-42-20.1-45.4-21.2-13.7-4.1-36.9-14.9-57-26.4-6.9-4-13.4-7.7-14.5-8.3-1.1-.6-6.1-4.2-11.2-8-16.1-12.1-25.2-24-30.1-39.4l-2.5-8.1-111-.6c-61.1-.4-138.6-.7-172.4-.7H39v60zm487.2-59-8.4.5 7.9 3.9c10.1 5.1 70.3 33.6 70.8 33.6 2.1 0 48 22.6 54.2 26.7 21.8 14.4 36.1 30.9 41.7 47.9l1.7 5.1 17.2.6c9.5.4 85 .7 168 .7H1030V415.9l-247.7.3c-136.3.1-251.5.5-256.1.8zM39 714.8V775h991V655l-191.2.1c-224.9.2-243.3.4-263.8 4.1-22.1 4-36.9 5.2-67 5.2-29.6.1-40.1-.9-62.5-6l-11-2.5-197.7-.6-197.8-.6v60.1z"/><path fill="#B60000" fill-opacity=".9" d="M564.8 293.7c.7.3 1.6.2 1.9-.1.4-.3-.2-.6-1.3-.5-1.1 0-1.4.3-.6.6zm-214 5c.7.3 1.6.2 1.9-.1.4-.3-.2-.6-1.3-.5-1.1 0-1.4.3-.6.6zm-102.5 118c7.1.2 18.3.2 25 0 6.7-.1 1-.3-12.8-.3-13.7 0-19.2.2-12.2.3zM399 449.4c0 .2.8 1 1.8 1.7 1.5 1.3 1.6 1.2.3-.4s-2.1-2.1-2.1-1.3zm8 8c0 .2.8 1 1.8 1.7 1.5 1.3 1.6 1.2.3-.4s-2.1-2.1-2.1-1.3zm261 37.9c0 .2 1.5 1.6 3.3 3.3l3.2 2.9-2.9-3.3c-2.8-3-3.6-3.7-3.6-2.9zm8.5 8.7c1 1.1 2 2 2.3 2 .3 0-.3-.9-1.3-2s-2-2-2.3-2c-.3 0 .3.9 1.3 2zM331.8 655.7c.7.3 1.6.2 1.9-.1.4-.3-.2-.6-1.3-.5-1.1 0-1.4.3-.6.6z"/><path fill="#B60000" fill-opacity=".8" d="M560.8 293.7c.6.2 1.8.2 2.5 0 .6-.3.1-.5-1.3-.5-1.4 0-1.9.2-1.2.5zm-206.5 5c.9.2 2.3.2 3 0 .6-.3-.1-.5-1.8-.5-1.6 0-2.2.2-1.2.5zm352.5 0c.6.2 1.8.2 2.5 0 .6-.3.1-.5-1.3-.5-1.4 0-1.9.2-1.2.5zm-404 118c10.1.2 26.3.2 36 0 9.7-.1 1.5-.2-18.3-.2s-27.8.1-17.7.2zm228 0c.7.3 1.6.2 1.9-.1.4-.3-.2-.6-1.3-.5-1.1 0-1.4.3-.6.6zm26 0c.7.3 1.6.2 1.9-.1.4-.3-.2-.6-1.3-.5-1.1 0-1.4.3-.6.6zm-65 119c.6.2 1.8.2 2.5 0 .6-.3.1-.5-1.3-.5-1.4 0-1.9.2-1.2.5zm-157 120c.7.3 1.6.2 1.9-.1.4-.3-.2-.6-1.3-.5-1.1 0-1.4.3-.6.6zm277 0c.7.3 1.6.2 1.9-.1.4-.3-.2-.6-1.3-.5-1.1 0-1.4.3-.6.6zm25 0c.7.3 1.6.2 1.9-.1.4-.3-.2-.6-1.3-.5-1.1 0-1.4.3-.6.6zm-116 9c.7.3 1.6.2 1.9-.1.4-.3-.2-.6-1.3-.5-1.1 0-1.4.3-.6.6z"/><path fill="#B60000" fill-opacity=".7" d="M383.3 298.7c14.1.2 37.3.2 51.5 0 14.1-.1 2.5-.2-25.8-.2s-39.9.1-25.7.2zm-20.5 118c3.9.2 10.5.2 14.5 0 3.9-.1.7-.3-7.3-.3s-11.2.2-7.2.3zm161 0c1.2.2 3.2.2 4.5 0 1.2-.2.2-.4-2.3-.4s-3.5.2-2.2.4zm16.5 0c3.2.2 8.1.2 11 0 2.9-.2.3-.3-5.8-.3-6 0-8.4.1-5.2.3zm-32.5 119c7.2.2 19.2.2 26.5 0 7.2-.1 1.3-.3-13.3-.3-14.6 0-20.5.2-13.2.3zm-149.5 120c11.9.2 31.5.2 43.5 0 11.9-.1 2.1-.2-21.8-.2-23.9 0-33.7.1-21.7.2zm241.5 0c2.3.2 5.9.2 8 0 2-.2.1-.4-4.3-.4-4.4 0-6.1.2-3.7.4zm21 0c2.8.2 7.6.2 10.5 0 2.8-.2.5-.3-5.3-.3s-8.1.1-5.2.3z"/><path fill="#A40000" fill-opacity=".7" d="M538.8 293.7c.7.3 1.6.2 1.9-.1.4-.3-.2-.6-1.3-.5-1.1 0-1.4.3-.6.6z"/><path fill="#B60000" fill-opacity=".6" d="M553.8 293.7c.7.3 1.6.2 1.9-.1.4-.3-.2-.6-1.3-.5-1.1 0-1.4.3-.6.6z"/><path fill="maroon" fill-opacity=".6" d="M546.8 293.7c1.2.2 3 .2 4 0 .9-.3-.1-.5-2.3-.4-2.2 0-3 .2-1.7.4z"/><path fill-opacity=".7" d="M537.3 294.7c3.7.2 9.7.2 13.5 0 3.7-.2.6-.3-6.8-.3-7.4 0-10.5.1-6.7.3zm-18.5 1c.7.3 1.6.2 1.9-.1.4-.3-.2-.6-1.3-.5-1.1 0-1.4.3-.6.6zM384.1 396.6c0 1.1.3 1.4.6.6.3-.7.2-1.6-.1-1.9-.3-.4-.6.2-.5 1.3zm132.7 235.1c.7.3 1.6.2 1.9-.1.4-.3-.2-.6-1.3-.5-1.1 0-1.4.3-.6.6zm5.5 32c.9.2 2.3.2 3 0 .6-.3-.1-.5-1.8-.5-1.6 0-2.2.2-1.2.5z"/><path fill-opacity=".5" d="M560.3 294.7c.9.2 2.5.2 3.5 0 .9-.3.1-.5-1.8-.5-1.9 0-2.7.2-1.7.5zm-168.5 273c.7.3 1.6.2 1.9-.1.4-.3-.2-.6-1.3-.5-1.1 0-1.4.3-.6.6z"/><path fill-opacity=".8" d="M506.8 296.7c.7.3 1.6.2 1.9-.1.4-.3-.2-.6-1.3-.5-1.1 0-1.4.3-.6.6zM384.1 399.6c0 1.1.3 1.4.6.6.3-.7.2-1.6-.1-1.9-.3-.4-.6.2-.5 1.3z"/><path d="M518 295.7c-49.3 3.8-89.6 21-112.4 47.9-7.3 8.6-15.8 25.6-18.6 37.5-2.7 11.6-3 31.6-.5 40.9 2.8 10.8 9 21.4 17.4 30 7.8 7.9 21.6 18.7 28 21.9 2 1 9.3 5 16.3 8.9 15.9 9 30.6 16 42.3 20.2 20 7.1 77.1 35.1 89 43.5 7.7 5.4 13.6 11.9 17.2 18.7 2.6 4.8 2.8 6.2 2.8 15.8 0 9.9-.2 11-3.3 17.2-3.5 7.1-11.2 15.4-18.5 19.8-12.2 7.5-25.8 11.4-45.1 13.2-11.3 1-15 .9-27.1-.6-22.8-2.8-44.8-8.7-58.9-15.7-18.8-9.5-30.8-21.1-39.2-38.1l-3.8-7.7-6.4-.7c-4.8-.5-6.7-.3-7.7.7-.8.8-3.7 7.5-6.5 14.9-8.5 22.3-16 42.9-16 43.9 0 2.2 13.7 8.6 36.9 17.2 27.1 10.1 61.4 17.2 88.6 18.5 16.5.7 48.9-.8 68.5-3.2 17.6-2.2 28.4-4.5 44.2-9.8 26.1-8.5 47.1-20.7 61.8-35.5 11.2-11.3 17.6-22.1 23.6-39.7 2.5-7.2 2.8-9.3 2.8-22.9.1-13.1-.2-16-2.2-22.5-3.4-10.6-8.3-18.1-18.7-28.6-14.1-14.2-25.4-21.9-45.3-30.8-50.6-22.7-110-51.5-120.6-58.6-11.5-7.8-21.5-18.1-25.6-26.4-3-6-3.4-8-3.4-14 0-11.4 4.7-19.3 16.2-27.8 14.7-10.9 31-15.1 58.2-15.2 25.8-.1 37.4 2.6 60.7 14 15.6 7.6 21.2 12.3 29.2 24.5 4.9 7.4 6.1 8.6 9.9 9.8 6.7 2.1 7.9 1 15-13.2 3.4-6.9 8.9-16.7 12.3-21.6 8.4-12.6 8.2-13.2-4.6-19.7-11.6-5.9-25.2-11.3-38-14.9-35-10-53.4-12.6-89.5-12.3-13.5.1-26.5.3-29 .5zm788.1 3.4c-10.4 1.2-26.1 5.6-36.1 9.8-22.9 9.8-43.8 30.5-52.9 52.6-5.9 14.1-7.3 21.4-7.8 40.3-.6 19.1.1 24.4 4.8 38.8 3.8 11.6 12.2 24.6 22 34 14.2 13.5 24.5 20 58 36.8 30.5 15.3 38.7 20.4 48 29.6 10.5 10.4 14.8 19.1 15.6 31.5 1.3 21.7-8.1 38.6-26.7 48-9.3 4.7-17.8 6.5-31.2 6.5-22.8 0-37.7-5.9-51.9-20.6-7-7.3-13.6-19.2-16-28.7l-1.2-4.8-5 .3-5 .3-3.2 16c-1.8 8.8-5.1 23.1-7.4 31.8-2.2 8.7-4.1 15.9-4.1 16.1 0 1 11.2 6.9 19.8 10.5 20.3 8.3 41.7 11.7 68 10.8 30.6-1 52.3-7 76.2-21 11.6-6.8 28.6-23.9 35.4-35.5 6-10.3 10.1-20.7 12.9-32.6 3.1-13.8 2.9-36.5-.6-49.7-4.4-16.8-10.8-28.4-21.3-38.7-3.5-3.4-6.4-6.6-6.4-7 0-1.2-13.3-10.9-22.5-16.5-4.4-2.7-19.7-10.7-34-17.9-39.4-19.8-49.2-26.5-57.9-39.7-14.6-21.9-7.2-50.4 16.4-63 11.8-6.3 28-8.7 41.2-6 7.6 1.5 17.7 5.6 22.3 9 2.2 1.6 5.2 3.7 6.7 4.7 1.6.9 2.8 2.2 2.8 2.9 0 .6.4 1.3.8 1.5 1.8.7 8.2 10.3 11.3 16.8l3.3 7h8.3l2.2-7.8c1.2-4.2 4.7-15.5 7.9-25l5.7-17.3-2.5-1.9c-13-9.8-34-17.9-54-20.9-9.9-1.5-33.6-2.1-41.9-1zM1249.5 609c1 1.1 1.6 2 1.3 2-.3 0-1.3-.9-2.3-2-1-1.1-1.6-2-1.3-2 .3 0 1.3.9 2.3 2zM1589 310.8c-7.5 19.8-47.2 119-65.5 163.7-23.8 57.8-23.1 56.3-28.9 70-2.6 6-7.1 16.8-10.1 24-3 7.1-12.1 28.7-20.4 47.9-8.3 19.3-14.8 35.2-14.6 35.5.3.2 6.3-.1 13.3-.7 9.9-.9 15.1-.9 23.5.1 7.4.9 11.1 1 11.6.2.4-.5 3.4-9.8 6.6-20.5 6.5-22.1 14.9-47.1 22.7-67.9l5.2-14.2 57.7.3c31.8.2 58 .6 58.4 1 1.1 1.1 7.5 19.5 21.7 62.6 13.2 40.1 13.3 40.3 15.8 39.7 4.6-1.1 62.3-1.7 73.5-.7 6.1.5 11.1.9 11.2.8.2-.2-4.9-11.7-10-22.6-16.3-35-65.5-157.6-99.9-249-12.3-32.5-25.8-68.3-28-73.8-1.9-4.9-2.3-5.3-4.7-4.7-8.3 2.2-24.1 2.2-33.7 0-1.9-.4-2.5.6-5.4 8.3zm6.6 97.3c10.9 27.5 40.4 107.7 40.4 109.8 0 .8-13.1 1.1-45 1.1-24.7 0-45-.2-45-.5 0-1.8 24.3-64.7 34.5-89.5 10.5-25.4 11.7-28.1 12.2-27.7.2.2 1.5 3.3 2.9 6.8zM3733 304.4c-.5 1.2-4 10.2-7.8 20.1-14.2 36.6-36.5 92.3-55.7 139-26.6 64.8-37 89.6-69.5 165.8-5.1 12-9 22-8.6 22.4.3.3 6.1.1 12.9-.5 8.7-.8 14.9-.9 21.7-.1 5.2.6 10.4 1.1 11.5 1.2 1.7.2 2.5-1.8 6.3-14.3 8.7-29.3 20.1-63 28.1-83.5l1.9-5 49.3-.3c27.2-.2 53.5 0 58.5.3l9 .7 8.4 24.4c4.5 13.5 12.3 36.5 17.1 51.2l8.8 26.7 2.8-.3c9.9-.9 63.7-1.2 72.8-.4 6.1.5 11.2.8 11.4.6.2-.2-3.2-8.4-7.7-18.1-16.1-35.6-49.8-117.9-77.2-188.8-11.6-30-47.1-123.4-51.8-136.3-2.5-6.8-2.9-7.2-5.2-6.6-6 1.5-21.5 2-28.7.9-7.2-1.1-7.5-1.1-8.3.9zm8.8 115.8c3.9 10.1 10.3 27.1 14.3 37.8 12.5 34.4 21.9 60.3 21.9 60.6 0 .2-20.2.4-45 .4-29.8 0-45-.3-45-1 0-4.9 44.1-116 46-116 .4 0 3.9 8.2 7.8 18.2zM1849.5 306.3c-.2.6-1.6 10.9-3 22.7-11.1 91.4-27.4 201-44.5 299.1-4.6 25.8-4.5 25.3-2.5 24.5 4.9-1.8 23.6-2.7 34.3-1.5 6.1.7 11.4 1 11.6.8.2-.2.9-8.7 1.5-18.9 2.8-46 7.4-105 10.6-137.5 3-29.8 7.7-69 8.4-69.8.7-.7 29.1 56.5 48.9 98.3 3.3 6.9 12.3 26 20.2 42.5 7.8 16.5 16.2 34 18.5 39 2.3 4.9 8.3 17.4 13.3 27.7l9.1 18.8h8.4c4.7 0 9.2.2 10 .5 1 .4 2.2-1.3 4.2-5.7 2.8-6.3 30.6-65.4 40.8-86.8 21.1-44.4 25.1-52.8 32.7-68.5 3.4-7.2 10.7-22.2 16.2-33.5 5.4-11.3 11.8-24.4 14-29.3 2.3-4.8 4.4-8.7 4.8-8.7.6 0 5.5 47 11 107 3 32.9 6.1 71.6 8.4 105.3.7 10.8 1.5 19.9 1.7 20.1.2.2 4.7 0 9.9-.6 10.2-1 66-.5 69.8.7 1.9.6 2.2.4 2.2-2.1 0-1.6-.9-8.1-2-14.4-5.9-34.4-16.2-116.2-32.8-263l-7.7-67.5-6 .5c-8.9.7-24.2.6-31-.3l-6.1-.7-2.8 5.7c-1.6 3.2-7.3 15.2-12.6 26.8-27 58.3-41.7 88.8-66.1 137-23.3 46.3-34.8 68.3-36 69.1-.7.4-52.9-103.1-52.9-104.9 0-.2-4.2-9.1-9.4-19.8-11.9-24.6-22-46.1-49.6-105.6l-3.9-8.3-4.8.8c-6.2.9-22 .9-30.1 0-4.6-.6-6.4-.5-6.7.5zm426.3 117.3c.2 101.1.4 120.3 1.8 128.4 4.7 29.3 14 48.4 32.7 67.3 13.8 13.9 26.8 21.9 47.5 29.1 22.8 7.9 46.5 11.1 77.9 10.3 24.8-.5 39.8-2.9 57-8.8 20.2-7 30.4-13.2 44.2-27 21.9-21.8 32.7-47 38.7-90.5 1-7.9 1.7-27.3 2.4-70.4.5-32.7 1.1-64.7 1.4-71 .3-6.3.8-18 1.1-26 .7-15.9 2.2-41.3 3.1-52.8l.7-7.3-6.9.8c-9 1-29.1 1-37.8 0l-6.9-.9.7 11.4c1.5 25.6 2.6 59.8 3.2 102.8 1.3 91.6-3.8 134.6-19.6 166.1-2.5 4.9-11 17.2-12.2 17.7-.4.2-.6.8-.2 1.3.3.5-.3 1.2-1.3 1.6-1 .4-3.8 2.3-6.3 4.2-5.9 4.5-17.1 9.7-25.7 11.8-9.3 2.3-38 2.3-51.1-.1-10.9-1.9-23.2-6.5-29.5-11-9.9-7-13.7-10-13.7-10.8 0-.4-1.6-3-3.5-5.7-9.3-12.9-16.6-35.8-20.2-62.6-1.6-12.4-1.8-21.3-1.7-78.5.1-64.7.9-87.1 4.8-132 .8-8.5 1.2-15.7 1.1-15.8-.2-.2-7.2.2-15.7.9-14.7 1.1-49.2.8-61.3-.7l-5-.6.3 118.8zm390.6-106.4c.4 6.8 1.1 21.5 1.6 32.8 1.3 27.1 1.3 235.1 0 260-.5 10.7-1.2 24.8-1.5 31.3l-.6 11.9 3.8-.6c12.2-1.9 38.7-2.5 68.1-1.5 17.4.6 46.3 1.2 64.2 1.2 27.4.2 34.2-.1 43.5-1.7 22.3-3.7 43-11 60.7-21.5 9.9-5.8 22.5-15.2 28-20.8 2.1-2.1 6.1-6.1 8.9-8.8 10.8-10.6 25.4-32.5 32.9-49.5 11.2-25.5 16-50.4 16-83-.1-51.9-13.4-90-40.9-116.9-23.4-22.8-55.1-36.1-100.6-42.3-17.7-2.3-50.7-2.8-129-1.8-21.4.3-42.8.1-47.4-.3l-8.4-.9.7 12.4zm155.6 19.3c43.8 9.6 73.4 40 84.9 87.3 4.1 16.6 5.5 33.5 4.7 55.7-1.1 32.4-6.3 56.6-16.9 79.8-3.7 8-13.5 23.3-16.8 26.3-1.1.9-1.9 2.5-1.9 3.6 0 1-.5 1.8-1.1 1.8-.5 0-.7-.6-.3-1.3.4-.6-.4-.1-1.8 1.2-1.4 1.4-2.3 3.1-2.1 3.9.4.8 0 1.2-.9 1-.8-.2-3.6 1.5-6.4 3.7-13.3 11-32.9 19.3-52.4 22.4-7.1 1.2-50.1 1.5-59.9.5l-6.1-.7.2-142.6.3-142.6 12.5-1.2c17.2-1.6 54.2-.9 64 1.2zm233.4-26.4c2.4 21.1 3.1 59.5 3.1 169.4-.1 109.4-.6 137.2-3.1 166.9l-.6 6.9 3.4-.6c1.8-.4 26.7-1.1 55.3-1.7 48.2-1 110.5-.2 130 1.6l6 .5v-45.3l-4.3.6c-20.9 2.8-102.7 7.3-108.3 5.8-2.5-.6-2.9-9.9-2.9-70.9 0-48.5.2-55.4 1.5-55.9 2.1-.8 63.9 1.3 90.4 3.1 11.8.8 21.6 1.3 21.8 1.1.2-.2 0-5.2-.4-11.2-.4-6-.5-15.6-.1-21.3.5-5.8.7-10.5.5-10.7-.1-.1-14.1.4-31.2 1.1-17 .7-42.6 1.6-56.9 2l-25.9.8.7-40.4c.8-41.2 1.9-67.5 2.9-68.5.5-.5 21.1.4 80.2 3.6 9.9.6 21.2 1.2 25 1.4l7 .5V305l-13.5.7c-19.5 1-128.2 1-156.9-.1l-24.4-.9.7 5.4zm259-.4c2.2 18.7 3.1 66.1 3.1 170.8-.1 104.9-.8 142.2-3.1 166.4l-.7 6.3 3.9-.6c15.3-2.5 59.8-2.5 75.8 0l3.9.6-.6-10.3c-1.6-25.5-2.7-61.9-3.1-104.2l-.4-45.7h2.1c1.8 0 4.4 3.9 14.1 21.3 26.3 46.8 47 83.7 51.7 91.9 2.7 4.9 7.1 12.7 9.8 17.5 2.7 4.9 7.4 13.1 10.4 18.3l5.4 9.5 35.9-.3c19.7-.2 40.4.1 45.9.6 5.5.6 10.1.9 10.2.8.3-.3-2.7-5-18.2-28.6-33.8-51.5-78.1-122.7-86.8-139.6l-1.5-3 8.5-2.3c24.8-6.9 48.9-25.5 59.3-46.1 6.7-13.1 10.7-34.1 9.5-49.5-1.7-23.1-8.7-38.9-23.4-53.4-13.3-13-26.6-19.4-47.4-22.8-10.9-1.8-48.7-2.2-116.7-1.2-17.3.2-35.3 0-39.9-.4l-8.3-.9.6 4.9zM3429 336c9.4 1.4 15.7 3.5 22.2 7.4 3.1 1.8 5.9 3.2 6.1 3 .2-.3 1 .2 1.7 1.1.7.8.9 1.5.6 1.5-.4 0 .4 1.5 1.7 3.2 3.1 4.1 7.4 15.1 8.8 22 1.8 9.5 2.3 29.8.9 40.4-1.4 11.1-5.4 23.2-10.1 30.5-4.5 7-14.4 15.8-21.7 19.2-9.6 4.5-20.8 6.6-34.6 6.7h-11.8l.6-54.3c.3-29.8.9-60.7 1.2-68.6l.6-14.4 13.7.7c7.5.3 16.5 1 20.1 1.6z"/><path fill-opacity=".9" d="M384.2 403c0 1.4.2 1.9.5 1.2.2-.6.2-1.8 0-2.5-.3-.6-.5-.1-.5 1.3zm-.1 7.6c0 1.1.3 1.4.6.6.3-.7.2-1.6-.1-1.9-.3-.4-.6.2-.5 1.3z"/><path fill="#6D0000" fill-opacity=".6" d="M498.3 664.7c2 .2 5.4.2 7.5 0 2-.2.3-.4-3.8-.4s-5.8.2-3.7.4z"/><path fill="#FFF" fill-opacity=".2" d="M1030.2 351.5c0 1.6.2 2.2.5 1.2.2-.9.2-2.3 0-3-.3-.6-.5.1-.5 1.8zM409.8 654.7c3.4.2 8.8.2 12 0 3.1-.2.3-.3-6.3-.3s-9.2.1-5.7.3zm194.4 0c3.7.2 10 .2 14 0 4-.1 1-.3-6.7-.3s-11 .1-7.3.3z"/><path fill="#FFF" fill-opacity=".1" d="M1030.4 339.5c0 5.5.1 7.6.3 4.7.2-2.9.2-7.4 0-10-.2-2.6-.3-.2-.3 5.3zm-.2 17c0 1.6.2 2.2.5 1.2.2-.9.2-2.3 0-3-.3-.6-.5.1-.5 1.8zm177.9 49.1c0 1.1.3 1.4.6.6.3-.7.2-1.6-.1-1.9-.3-.4-.6.2-.5 1.3zm1927.7 82.1c.7.3 1.6.2 1.9-.1.4-.3-.2-.6-1.3-.5-1.1 0-1.4.3-.6.6zm8.5 0c1.5.2 3.7.2 5 0 1.2-.2 0-.4-2.8-.4-2.7 0-3.8.2-2.2.4zm-358.5 165c.6.2 1.8.2 2.5 0 .6-.3.1-.5-1.3-.5-1.4 0-1.9.2-1.2.5z"/><path fill="#FFF" fill-opacity=".5" d="M38.5 300.2c-.3.7-.4 26.9-.3 58.3l.3 57h81l-40.2-.2L39 415V300l53.3-.3 53.2-.2-53.3-.3c-41.9-.1-53.4.1-53.7 1zm341.6-.7c.7.6 100 .7 100.7 0 .3-.3-22.3-.5-50.3-.5-28 0-50.6.2-50.4.5zm233.1 0c.7.7 95 .6 95.7 0 .2-.3-21.3-.5-47.9-.5-26.6 0-48.1.2-47.8.5zm341.1.2c14.2.2 37.2.2 51 0 13.9-.1 2.3-.2-25.8-.2-28 0-39.4.1-25.2.2zm-632 116c11.5.2 29.9.2 41 0 11.1-.1 1.8-.2-20.8-.2-22.5 0-31.6.1-20.2.2zm222.5 0c17.2.2 45.1.2 62 0 16.9-.1 2.8-.2-31.3-.2s-47.9.1-30.7.2zm393 0c17.2.2 45.1.2 62 0 16.9-.1 2.8-.2-31.3-.2s-47.9.1-30.7.2zM38.5 596v58.5H132l-46.5-.2L39 654l-.3-58.3-.2-58.2V596zm516.3-58.3c1.2.2 3 .2 4 0 .9-.3-.1-.5-2.3-.4-2.2 0-3 .2-1.7.4zm-201.5 117c8.6.2 22.8.2 31.5 0 8.6-.1 1.5-.3-15.8-.3s-24.4.2-15.7.3zm293 0c9.7.2 25.7.2 35.5 0 9.7-.1 1.7-.2-17.8-.2s-27.5.1-17.7.2zm305.5 0c14.4.2 38 .2 52.5 0 14.4-.1 2.6-.2-26.3-.2-28.9 0-40.7.1-26.2.2z"/><path fill="#EDBFBF" fill-opacity=".5" d="M145.8 299.7c.7.3 1.6.2 1.9-.1.4-.3-.2-.6-1.3-.5-1.1 0-1.4.3-.6.6zm232 0c.7.3 1.6.2 1.9-.1.4-.3-.2-.6-1.3-.5-1.1 0-1.4.3-.6.6zm-245 355c.7.3 1.6.2 1.9-.1.4-.3-.2-.6-1.3-.5-1.1 0-1.4.3-.6.6zm203 0c.7.3 1.6.2 1.9-.1.4-.3-.2-.6-1.3-.5-1.1 0-1.4.3-.6.6zm364 0c.7.3 1.6.2 1.9-.1.4-.3-.2-.6-1.3-.5-1.1 0-1.4.3-.6.6zm224 0c.7.3 1.6.2 1.9-.1.4-.3-.2-.6-1.3-.5-1.1 0-1.4.3-.6.6z"/><path fill="#DB8080" fill-opacity=".6" d="M205.8 299.7c31.6.2 82.9.2 114 0 31.2-.1 5.4-.2-57.3-.2-62.7 0-88.2.1-56.7.2zm559.5 0c29.5.2 77.9.2 107.5 0 29.5-.1 5.3-.2-53.8-.2-59.1 0-83.3.1-53.7.2zm-580.1 355c27.4.2 72.2.2 99.5 0 27.4-.1 5-.2-49.7-.2s-77.1.1-49.8.2zm572 0c30 .2 79.5.2 110 0 30.4-.1 5.8-.2-54.7-.2s-85.4.1-55.3.2z"/><path fill="#FFF" d="M39 357.5V415h344l.1-11.3c.1-12.3.1-13.1 2.6-23.2 5-21.4 17.9-40.7 36.1-54.5 11.5-8.7 30.7-17.9 49.2-23.6l7.5-2.3H258.8L39 300v57.5zM626 303c17.8 4.8 35 11 47.1 17 6.3 3.2 12.1 6.5 12.8 7.4 1.9 2.3.7 7.1-2.8 11.5-4.3 5.3-11.7 18.1-16.3 28.1-4.9 10.5-6.2 12-10.5 12-6.6 0-9.8-2.3-15.7-11.2-7-10.6-13.1-16.2-24.2-21.9-20.7-10.8-34.3-14.6-59.1-16.5-9.2-.6-34.8 2.5-43.3 5.3-9 3-19.1 9.2-25.6 15.7-17.6 17.6-10.8 39.7 18.3 59.7l7.2 4.9H1030V300l-207.2.1-207.3.1L626 303zM39 595.4V654l192.8-.1 192.7-.1-15.5-5.2c-8.5-2.9-17.3-6.1-19.5-7-11.5-5-22.2-10.4-23.3-11.9-1.2-1.4.2-5.8 10-31.9l11.5-30.3 4.4-.3c2.4-.2 6.3-.1 8.5.3 3.7.5 4.3 1 6 4.8 2.7 6.3 9.5 16.5 14.8 22.4 17 18.8 46.3 30.4 87.6 34.7 30.2 3.2 59.5-4.2 75.8-19 7.2-6.4 10.7-12.3 12.8-21.3 2.9-12.6-.4-23.6-10.2-33.6-5.4-5.5-8.4-7.6-19.9-14.4l-6-3.5-261.2-.4-261.3-.4v58.6zm655.8-41.7c-.5 15.2-.8 17.5-3.3 24.3-6.2 17-16.3 33-25.8 41.2-15 12.8-33.9 23.6-53.2 30.5l-12 4.2h214.8l214.7.1V537H695.3l-.5 16.7z"/><path fill="#FFF" fill-opacity=".9" d="M488 394.4c0 .2.8 1 1.8 1.7 1.5 1.3 1.6 1.2.3-.4s-2.1-2.1-2.1-1.3zm7 7c0 .2.8 1 1.8 1.7 1.5 1.3 1.6 1.2.3-.4s-2.1-2.1-2.1-1.3z"/><path fill="#FFF" fill-opacity=".7" d="M518.3 537.7c6.5.2 16.8.2 23 0 6.2-.1.9-.3-11.8-.3-12.6 0-17.7.2-11.2.3z"/><path fill="#928080" fill-opacity=".6" d="M599.1 580.6c0 1.1.3 1.4.6.6.3-.7.2-1.6-.1-1.9-.3-.4-.6.2-.5 1.3z"/><path fill="#A48080" fill-opacity=".4" d="M694.1 550.6c0 1.1.3 1.4.6.6.3-.7.2-1.6-.1-1.9-.3-.4-.6.2-.5 1.3z"/><path fill="#EDBFBF" fill-opacity=".8" d="M422.5 597c1 1.1 2 2 2.3 2 .3 0-.3-.9-1.3-2s-2-2-2.3-2c-.3 0 .3.9 1.3 2zm165.4 10.7c-1.3 1.6-1.2 1.7.4.4 1.6-1.3 2.1-2.1 1.3-2.1-.2 0-1 .8-1.7 1.7z"/><path fill="#120000" d="M1393.1 477.6c1.3 1.7 2.6 3 2.8 2.7.3-.2-.8-1.6-2.4-3.1l-2.8-2.7 2.4 3.1z"/><path fill="#DBBFBF" fill-opacity=".7" d="M383.1 405.6c0 1.1.3 1.4.6.6.3-.7.2-1.6-.1-1.9-.3-.4-.6.2-.5 1.3z"/><path fill="#EDBFBF" d="M365.1 627.6c0 1.1.3 1.4.6.6.3-.7.2-1.6-.1-1.9-.3-.4-.6.2-.5 1.3z"/><path fill="#240000" d="M3457 346.9c0 .6.4 1.3 1 1.6.6.3.7-.1.4-.9-.7-1.8-1.4-2.1-1.4-.7z"/><path fill="#5B4040" d="M1247 607.4c0 .2.8 1 1.8 1.7 1.5 1.3 1.6 1.2.3-.4s-2.1-2.1-2.1-1.3z"/><path fill="#6D4040" fill-opacity=".4" d="M233.2 536.7c36.1.2 95.5.2 132 0 36.5-.1 6.9-.2-65.7-.2-72.6 0-102.4.1-66.3.2zm586.1 0c23.5.2 61.9.2 85.5 0 23.5-.1 4.2-.2-42.8-.2s-66.3.1-42.7.2z"/><path fill="#C88080" fill-opacity=".6" d="M167.8 415.7c24.4.2 64 .2 88 0 24-.1 4.1-.2-44.3-.2s-68.1.1-43.7.2zm539 0c35.8.2 94.6.2 130.5 0 35.8-.1 6.5-.2-65.3-.2s-101.1.1-65.2.2z"/></svg>